<svg width="48" height="48" viewBox="0 0 48 48" fill="none" xmlns="http://www.w3.org/2000/svg">
<path d="M43.25 24C43.25 34.6315 34.6315 43.25 24 43.25V44.75C35.4599 44.75 44.75 35.4599 44.75 24H43.25ZM24 43.25C13.3685 43.25 4.75 34.6315 4.75 24H3.25C3.25 35.4599 12.5401 44.75 24 44.75V43.25ZM4.75 24C4.75 13.3685 13.3685 4.75 24 4.75V3.25C12.5401 3.25 3.25 12.5401 3.25 24H4.75ZM24 4.75C34.6315 4.75 43.25 13.3685 43.25 24H44.75C44.75 12.5401 35.4599 3.25 24 3.25V4.75ZM31.25 24C31.25 29.4519 30.3647 34.3531 28.9605 37.8636C28.2576 39.6209 27.4393 40.9928 26.569 41.913C25.7003 42.8316 24.8319 43.25 24 43.25V44.75C25.3772 44.75 26.6134 44.0491 27.6589 42.9436C28.7028 41.8397 29.6084 40.2826 30.3532 38.4207C31.8444 34.6926 32.75 29.5938 32.75 24H31.25ZM24 43.25C23.1681 43.25 22.2997 42.8316 21.431 41.913C20.5607 40.9928 19.7424 39.6209 19.0395 37.8636C17.6353 34.3531 16.75 29.4519 16.75 24H15.25C15.25 29.5938 16.1556 34.6926 17.6468 38.4207C18.3916 40.2826 19.2972 41.8397 20.3411 42.9436C21.3866 44.0491 22.6228 44.75 24 44.75V43.25ZM16.75 24C16.75 18.5481 17.6353 13.6469 19.0395 10.1364C19.7424 8.37906 20.5607 7.00724 21.431 6.08703C22.2997 5.1684 23.1681 4.75 24 4.75V3.25C22.6228 3.25 21.3866 3.95089 20.3411 5.05637C19.2972 6.16027 18.3916 7.71738 17.6468 9.57932C16.1556 13.3074 15.25 18.4062 15.25 24H16.75ZM24 4.75C24.8319 4.75 25.7003 5.1684 26.569 6.08703C27.4393 7.00724 28.2576 8.37906 28.9605 10.1364C30.3647 13.6469 31.25 18.5481 31.25 24H32.75C32.75 18.4062 31.8444 13.3074 30.3532 9.57932C29.6084 7.71738 28.7028 6.16027 27.6589 5.05637C26.6134 3.95089 25.3772 3.25 24 3.25V4.75ZM24 29.25C18.5291 29.25 13.6051 28.5838 10.0734 27.5243C8.30273 26.9931 6.92446 26.3755 6.0056 25.7237C5.06725 25.0582 4.75 24.4648 4.75 24H3.25C3.25 25.192 4.05204 26.1771 5.1378 26.9472C6.24305 27.7311 7.79371 28.4064 9.64235 28.961C13.3492 30.0731 18.4252 30.75 24 30.75V29.25ZM4.75 24C4.75 23.5352 5.06725 22.9418 6.0056 22.2763C6.92446 21.6245 8.30273 21.0069 10.0734 20.4757C13.6051 19.4162 18.5291 18.75 24 18.75V17.25C18.4252 17.25 13.3492 17.9269 9.64235 19.039C7.79371 19.5936 6.24305 20.2689 5.1378 21.0528C4.05204 21.8229 3.25 22.808 3.25 24H4.75ZM24 18.75C29.4709 18.75 34.3949 19.4162 37.9266 20.4757C39.6973 21.0069 41.0755 21.6245 41.9944 22.2763C42.9328 22.9418 43.25 23.5352 43.25 24H44.75C44.75 22.808 43.948 21.8229 42.8622 21.0528C41.757 20.2689 40.2063 19.5936 38.3576 19.039C34.6508 17.9269 29.5748 17.25 24 17.25V18.75ZM43.25 24C43.25 24.4648 42.9328 25.0582 41.9944 25.7237C41.0755 26.3755 39.6973 26.9931 37.9266 27.5243C34.3949 28.5838 29.4709 29.25 24 29.25V30.75C29.5748 30.75 34.6508 30.0731 38.3576 28.961C40.2063 28.4064 41.757 27.7311 42.8622 26.9472C43.948 26.1771 44.75 25.192 44.75 24H43.25Z" fill="#28303F"/>
</svg>
