<svg width="48" height="48" viewBox="0 0 48 48" fill="none" xmlns="http://www.w3.org/2000/svg">
<path d="M14 12V12.75C14.2508 12.75 14.4849 12.6247 14.624 12.416L14 12ZM16.8125 7.7812L16.1885 7.36517L16.8125 7.7812ZM31.1875 7.7812L31.8115 7.36517L31.1875 7.7812ZM34 12L33.376 12.416C33.5151 12.6247 33.7492 12.75 34 12.75V12ZM29.25 27C29.25 29.8995 26.8995 32.25 24 32.25V33.75C27.7279 33.75 30.75 30.7279 30.75 27H29.25ZM24 32.25C21.1005 32.25 18.75 29.8995 18.75 27H17.25C17.25 30.7279 20.2721 33.75 24 33.75V32.25ZM18.75 27C18.75 24.1005 21.1005 21.75 24 21.75V20.25C20.2721 20.25 17.25 23.2721 17.25 27H18.75ZM24 21.75C26.8995 21.75 29.25 24.1005 29.25 27H30.75C30.75 23.2721 27.7279 20.25 24 20.25V21.75ZM14.624 12.416L17.4366 8.19722L16.1885 7.36517L13.376 11.584L14.624 12.416ZM20.1407 6.75H27.8593V5.25H20.1407V6.75ZM30.5634 8.19722L33.376 12.416L34.624 11.584L31.8115 7.36517L30.5634 8.19722ZM27.8593 6.75C28.9459 6.75 29.9607 7.29308 30.5634 8.19722L31.8115 7.36517C30.9305 6.04373 29.4474 5.25 27.8593 5.25V6.75ZM17.4366 8.19722C18.0393 7.29308 19.0541 6.75 20.1407 6.75V5.25C18.5526 5.25 17.0695 6.04373 16.1885 7.36517L17.4366 8.19722ZM43.25 20V34H44.75V20H43.25ZM36 41.25H12V42.75H36V41.25ZM4.75 34V20H3.25V34H4.75ZM12 41.25C7.99594 41.25 4.75 38.0041 4.75 34H3.25C3.25 38.8325 7.16751 42.75 12 42.75V41.25ZM43.25 34C43.25 38.0041 40.0041 41.25 36 41.25V42.75C40.8325 42.75 44.75 38.8325 44.75 34H43.25ZM36 12.75C40.0041 12.75 43.25 15.9959 43.25 20H44.75C44.75 15.1675 40.8325 11.25 36 11.25V12.75ZM12 11.25C7.16751 11.25 3.25 15.1675 3.25 20H4.75C4.75 15.9959 7.99594 12.75 12 12.75V11.25ZM12 12.75H14V11.25H12V12.75ZM36 11.25H34V12.75H36V11.25Z" fill="#28303F"/>
<circle cx="24" cy="12" r="2" fill="#28303F"/>
</svg>
