<svg width="48" height="48" viewBox="0 0 48 48" fill="none" xmlns="http://www.w3.org/2000/svg">
<path d="M22.1333 7.6L21.6833 8.2V8.2L22.1333 7.6ZM25.8667 10.4L26.3167 9.8V9.8L25.8667 10.4ZM43.25 20V34H44.75V20H43.25ZM36 41.25H12V42.75H36V41.25ZM4.75 34V14H3.25V34H4.75ZM30.6667 12.75H36V11.25H30.6667V12.75ZM12 6.75H17.3333V5.25H12V6.75ZM21.6833 8.2L25.4167 11L26.3167 9.8L22.5833 7L21.6833 8.2ZM17.3333 6.75C18.902 6.75 20.4284 7.25879 21.6833 8.2L22.5833 7C21.0687 5.86406 19.2266 5.25 17.3333 5.25V6.75ZM30.6667 11.25C29.098 11.25 27.5716 10.7412 26.3167 9.8L25.4167 11C26.9313 12.1359 28.7734 12.75 30.6667 12.75V11.25ZM12 41.25C7.99594 41.25 4.75 38.0041 4.75 34H3.25C3.25 38.8325 7.16751 42.75 12 42.75V41.25ZM43.25 34C43.25 38.0041 40.0041 41.25 36 41.25V42.75C40.8325 42.75 44.75 38.8325 44.75 34H43.25ZM44.75 20C44.75 15.1675 40.8325 11.25 36 11.25V12.75C40.0041 12.75 43.25 15.9959 43.25 20H44.75ZM4.75 14C4.75 9.99594 7.99594 6.75 12 6.75V5.25C7.16751 5.25 3.25 9.16751 3.25 14H4.75Z" fill="#28303F"/>
</svg>
