<svg width="48" height="48" viewBox="0 0 48 48" fill="none" xmlns="http://www.w3.org/2000/svg">
<path d="M43.5618 28.6087C43.8979 28.8507 44.3666 28.7744 44.6087 28.4382C44.8507 28.1021 44.7744 27.6334 44.4382 27.3913L43.5618 28.6087ZM38.122 23.7678L37.6838 24.3765L38.122 23.7678ZM28.0958 24.3138L28.5976 24.8712L28.0958 24.3138ZM19.9042 31.6862L20.4059 32.2437L19.9042 31.6862ZM9.87801 32.2322L10.3162 31.6235L9.87801 32.2322ZM4.43823 27.3913C4.10208 27.1493 3.63338 27.2256 3.39135 27.5618C3.14932 27.8979 3.22562 28.3666 3.56177 28.6087L4.43823 27.3913ZM12 4.75H36V3.25H12V4.75ZM43.25 12V36H44.75V12H43.25ZM36 43.25H12V44.75H36V43.25ZM4.75 36V12H3.25V36H4.75ZM12 43.25C7.99594 43.25 4.75 40.0041 4.75 36H3.25C3.25 40.8325 7.16751 44.75 12 44.75V43.25ZM43.25 36C43.25 40.0041 40.0041 43.25 36 43.25V44.75C40.8325 44.75 44.75 40.8325 44.75 36H43.25ZM36 4.75C40.0041 4.75 43.25 7.99594 43.25 12H44.75C44.75 7.16751 40.8325 3.25 36 3.25V4.75ZM12 3.25C7.16751 3.25 3.25 7.16751 3.25 12H4.75C4.75 7.99594 7.99594 4.75 12 4.75V3.25ZM44.4382 27.3913L38.5602 23.1592L37.6838 24.3765L43.5618 28.6087L44.4382 27.3913ZM27.5941 23.7563L19.4024 31.1288L20.4059 32.2437L28.5976 24.8712L27.5941 23.7563ZM10.3162 31.6235L4.43823 27.3913L3.56177 28.6087L9.43979 32.8408L10.3162 31.6235ZM19.4024 31.1288C16.8672 33.4105 13.0843 33.6165 10.3162 31.6235L9.43979 32.8408C12.7805 35.2461 17.3461 34.9975 20.4059 32.2437L19.4024 31.1288ZM38.5602 23.1592C35.2195 20.7539 30.6539 21.0024 27.5941 23.7563L28.5976 24.8712C31.1328 22.5895 34.9157 22.3835 37.6838 24.3765L38.5602 23.1592ZM21.25 17C21.25 19.3472 19.3472 21.25 17 21.25V22.75C20.1756 22.75 22.75 20.1756 22.75 17H21.25ZM17 21.25C14.6528 21.25 12.75 19.3472 12.75 17H11.25C11.25 20.1756 13.8244 22.75 17 22.75V21.25ZM12.75 17C12.75 14.6528 14.6528 12.75 17 12.75V11.25C13.8244 11.25 11.25 13.8244 11.25 17H12.75ZM17 12.75C19.3472 12.75 21.25 14.6528 21.25 17H22.75C22.75 13.8244 20.1756 11.25 17 11.25V12.75Z" fill="#28303F"/>
</svg>
