<svg width="21" height="27" viewBox="0 0 21 27" fill="none" xmlns="http://www.w3.org/2000/svg">
<path d="M0 0H0.81V27H0V0Z" fill="black"/>
<path d="M2.22117 1.99125H3.00586L6.41039 10.1039L9.82125 1.99125H10.5996L6.70781 11.205H6.11297L2.22117 1.99125ZM1.9807 1.99125H2.67047L2.75273 7.18031V11.205H1.9807V1.99125ZM10.163 1.99125H10.8527V11.205H10.0744V7.18031L10.163 1.99125Z" fill="black"/>
<path d="M20.1234 6.10453V7.09172C20.1234 7.73719 20.0391 8.32148 19.8703 8.84461C19.7058 9.36352 19.4653 9.80859 19.1489 10.1798C18.8367 10.5511 18.4612 10.8359 18.0225 11.0341C17.5837 11.2324 17.0902 11.3316 16.5417 11.3316C16.0059 11.3316 15.5166 11.2324 15.0736 11.0341C14.6348 10.8359 14.2573 10.5511 13.9409 10.1798C13.6245 9.80859 13.3798 9.36352 13.2068 8.84461C13.0338 8.32148 12.9473 7.73719 12.9473 7.09172V6.10453C12.9473 5.45906 13.0317 4.87688 13.2005 4.35797C13.3734 3.83484 13.6181 3.38766 13.9345 3.01641C14.2509 2.64516 14.6285 2.36039 15.0673 2.16211C15.506 1.96383 15.9933 1.86469 16.5291 1.86469C17.0775 1.86469 17.5711 1.96383 18.0098 2.16211C18.4486 2.36039 18.8262 2.64516 19.1426 3.01641C19.459 3.38766 19.7016 3.83484 19.8703 4.35797C20.0391 4.87688 20.1234 5.45906 20.1234 6.10453ZM19.3514 7.09172V6.09188C19.3514 5.54766 19.2881 5.05828 19.1616 4.62375C19.0392 4.18922 18.8557 3.81797 18.611 3.51C18.3705 3.20203 18.0752 2.96578 17.7251 2.80125C17.3749 2.63672 16.9762 2.55445 16.5291 2.55445C16.0945 2.55445 15.7043 2.63672 15.3584 2.80125C15.0124 2.96578 14.7171 3.20203 14.4724 3.51C14.232 3.81797 14.0463 4.18922 13.9155 4.62375C13.789 5.05828 13.7257 5.54766 13.7257 6.09188V7.09172C13.7257 7.64016 13.789 8.13375 13.9155 8.5725C14.0463 9.00703 14.2341 9.38039 14.4787 9.69258C14.7234 10.0005 15.0187 10.2368 15.3647 10.4013C15.7148 10.5659 16.1072 10.6481 16.5417 10.6481C16.9931 10.6481 17.3918 10.5659 17.7377 10.4013C18.0837 10.2368 18.3769 10.0005 18.6173 9.69258C18.8578 9.38039 19.0392 9.00703 19.1616 8.5725C19.2881 8.13375 19.3514 7.64016 19.3514 7.09172Z" fill="black"/>
<path d="M17.2125 7.31637C17.2125 7.23199 17.1935 7.15395 17.1555 7.08223C17.1197 7.0084 17.0448 6.94195 16.9309 6.88289C16.8191 6.82172 16.6504 6.76898 16.4246 6.72469C16.2348 6.68461 16.0629 6.63715 15.9089 6.5823C15.757 6.52746 15.6273 6.46102 15.5197 6.38297C15.4143 6.30492 15.333 6.21316 15.2761 6.1077C15.2191 6.00223 15.1907 5.87883 15.1907 5.7375C15.1907 5.6025 15.2202 5.47488 15.2793 5.35465C15.3404 5.23441 15.4259 5.12789 15.5355 5.03508C15.6473 4.94227 15.7813 4.86949 15.9374 4.81676C16.0935 4.76402 16.2675 4.73766 16.4595 4.73766C16.7337 4.73766 16.9678 4.78617 17.1619 4.8832C17.3559 4.98023 17.5046 5.10996 17.608 5.27238C17.7114 5.4327 17.763 5.61094 17.763 5.80711H17.1777C17.1777 5.71219 17.1492 5.62043 17.0923 5.53184C17.0374 5.44113 16.9562 5.36625 16.8486 5.30719C16.7432 5.24813 16.6134 5.21859 16.4595 5.21859C16.297 5.21859 16.1652 5.24391 16.0639 5.29453C15.9648 5.34305 15.892 5.40527 15.8456 5.48121C15.8013 5.55715 15.7792 5.6373 15.7792 5.72168C15.7792 5.78496 15.7897 5.84191 15.8108 5.89254C15.834 5.94105 15.8741 5.98641 15.9311 6.02859C15.988 6.06867 16.0682 6.10664 16.1715 6.1425C16.2749 6.17836 16.4067 6.21422 16.567 6.25008C16.8476 6.31336 17.0786 6.3893 17.26 6.47789C17.4414 6.56648 17.5764 6.67512 17.665 6.80379C17.7536 6.93246 17.7978 7.08855 17.7978 7.27207C17.7978 7.42184 17.7662 7.55895 17.7029 7.6834C17.6418 7.80785 17.5521 7.91543 17.434 8.00613C17.318 8.09473 17.1787 8.16434 17.0163 8.21496C16.856 8.26348 16.6757 8.28773 16.4753 8.28773C16.1736 8.28773 15.9184 8.23395 15.7096 8.12637C15.5007 8.01879 15.3425 7.87957 15.235 7.70871C15.1274 7.53785 15.0736 7.3575 15.0736 7.16766H15.6621C15.6705 7.32797 15.717 7.45559 15.8013 7.55051C15.8857 7.64332 15.9891 7.70977 16.1114 7.74984C16.2337 7.78781 16.355 7.8068 16.4753 7.8068C16.6356 7.8068 16.7695 7.7857 16.8771 7.74352C16.9868 7.70133 17.0701 7.64332 17.1271 7.56949C17.184 7.49566 17.2125 7.41129 17.2125 7.31637Z" fill="black"/>
<path d="M1.96172 15.4913H4.95492C5.59195 15.4913 6.14461 15.5946 6.61289 15.8013C7.08117 16.008 7.44187 16.3139 7.695 16.7189C7.95234 17.1197 8.08101 17.6133 8.08101 18.1997C8.08101 18.6342 7.9882 19.0287 7.80258 19.383C7.62117 19.7374 7.37016 20.0348 7.04953 20.2753C6.72891 20.5116 6.35766 20.674 5.93578 20.7626L5.66367 20.8638H2.46797L2.45531 20.1994H5.13211C5.61305 20.1994 6.01383 20.1066 6.33445 19.9209C6.65508 19.7353 6.89555 19.4906 7.05586 19.1869C7.22039 18.8789 7.30266 18.5498 7.30266 18.1997C7.30266 17.782 7.21195 17.4213 7.03055 17.1176C6.85336 16.8096 6.58969 16.5734 6.23953 16.4088C5.88937 16.2443 5.46117 16.162 4.95492 16.162H2.74008V24.705H1.96172V15.4913ZM7.6507 24.705L5.265 20.5854L6.10031 20.5791L8.47969 24.6227V24.705H7.6507Z" fill="black"/>
<path d="M16.3793 24.705H14.291L14.3037 24.0405H16.3793C17.0416 24.0405 17.6112 23.8929 18.0879 23.5976C18.5688 23.298 18.9401 22.8846 19.2016 22.3573C19.4632 21.8299 19.594 21.2182 19.594 20.5221V19.6615C19.594 19.1299 19.518 18.649 19.3662 18.2187C19.2185 17.7884 19.0055 17.4213 18.727 17.1176C18.4486 16.8096 18.1153 16.5734 17.7272 16.4088C17.3433 16.2443 16.913 16.162 16.4362 16.162H14.253V15.4913H16.4362C17.01 15.4913 17.5352 15.5904 18.012 15.7887C18.4929 15.9827 18.9084 16.2654 19.2586 16.6366C19.613 17.0037 19.8851 17.4445 20.0749 17.9592C20.269 18.4739 20.366 19.0477 20.366 19.6805V20.5221C20.366 21.1549 20.269 21.7287 20.0749 22.2434C19.8851 22.758 19.613 23.1989 19.2586 23.5659C18.9042 23.933 18.4845 24.2156 17.9993 24.4139C17.5141 24.608 16.9741 24.705 16.3793 24.705ZM14.6391 15.4913V24.705H13.8607V15.4913H14.6391Z" fill="black"/>
</svg>
