<svg width="48" height="48" viewBox="0 0 48 48" fill="none" xmlns="http://www.w3.org/2000/svg">
<path d="M24.75 12.1068C24.75 11.6926 24.4142 11.3568 24 11.3568C23.5858 11.3568 23.25 11.6926 23.25 12.1068H24.75ZM23.25 40.605C23.25 41.0193 23.5858 41.355 24 41.355C24.4142 41.355 24.75 41.0193 24.75 40.605H23.25ZM7.98866 6.0226L8.07287 5.27735L7.98866 6.0226ZM22.6336 10.849L23.064 10.2347H23.064L22.6336 10.849ZM7.98866 36.7447L8.07287 35.9994L7.98866 36.7447ZM22.6336 41.5711L23.064 40.9568H23.064L22.6336 41.5711ZM40.0113 6.0226L39.9271 5.27735L40.0113 6.0226ZM25.3664 10.849L24.936 10.2347H24.936L25.3664 10.849ZM40.0113 36.7447L39.9271 35.9994L40.0113 36.7447ZM25.3664 41.5711L24.936 40.9568H24.936L25.3664 41.5711ZM10.1148 15.7682C9.70545 15.7048 9.32223 15.9852 9.25884 16.3946C9.19544 16.8039 9.47588 17.1871 9.88522 17.2505L10.1148 15.7682ZM17.7295 19.2753C18.1158 19.4247 18.5501 19.2327 18.6995 18.8463C18.8489 18.46 18.6568 18.0257 18.2705 17.8763L17.7295 19.2753ZM10.1148 23.7682C9.70545 23.7048 9.32223 23.9852 9.25884 24.3946C9.19544 24.8039 9.47588 25.1871 9.88522 25.2505L10.1148 23.7682ZM13.8165 26.044C14.2182 26.1453 14.6259 25.9019 14.7272 25.5002C14.8285 25.0986 14.5851 24.6909 14.1835 24.5896L13.8165 26.044ZM23.25 12.1068V40.605H24.75V12.1068H23.25ZM7.90444 6.76786C12.2992 7.26446 18.1099 8.59486 22.2033 11.4632L23.064 10.2347C18.6626 7.15054 12.5517 5.78345 8.07287 5.27735L7.90444 6.76786ZM7.90445 37.49C12.2992 37.9866 18.1099 39.317 22.2033 42.1853L23.064 40.9568C18.6626 37.8726 12.5517 36.5055 8.07287 35.9994L7.90445 37.49ZM3.25 9.87042V32.4H4.75V9.87042H3.25ZM8.07287 35.9994C6.22519 35.7907 4.75 34.2502 4.75 32.4H3.25C3.25 35.0744 5.3605 37.2025 7.90445 37.49L8.07287 35.9994ZM8.07287 5.27735C5.36296 4.97113 3.25 7.23337 3.25 9.87042H4.75C4.75 7.98284 6.22273 6.57783 7.90444 6.76786L8.07287 5.27735ZM39.9271 5.27735C35.4483 5.78345 29.3374 7.15054 24.936 10.2347L25.7967 11.4632C29.8901 8.59486 35.7008 7.26446 40.0956 6.76786L39.9271 5.27735ZM39.9271 35.9994C35.4483 36.5055 29.3374 37.8726 24.936 40.9568L25.7967 42.1853C29.8901 39.317 35.7008 37.9866 40.0956 37.49L39.9271 35.9994ZM43.25 9.87042V32.4H44.75V9.87042H43.25ZM40.0956 37.49C42.6395 37.2025 44.75 35.0744 44.75 32.4H43.25C43.25 34.2502 41.7748 35.7907 39.9271 35.9994L40.0956 37.49ZM40.0956 6.76786C41.7773 6.57783 43.25 7.98284 43.25 9.87042H44.75C44.75 7.23337 42.637 4.97113 39.9271 5.27735L40.0956 6.76786ZM22.2033 42.1853C23.2779 42.9383 24.7221 42.9383 25.7967 42.1853L24.936 40.9568C24.378 41.3478 23.622 41.3478 23.064 40.9568L22.2033 42.1853ZM22.2033 11.4632C23.2779 12.2162 24.7221 12.2162 25.7967 11.4632L24.936 10.2347C24.378 10.6257 23.622 10.6257 23.064 10.2347L22.2033 11.4632ZM9.88522 17.2505C12.3798 17.6368 15.1486 18.2773 17.7295 19.2753L18.2705 17.8763C15.5625 16.8291 12.6833 16.166 10.1148 15.7682L9.88522 17.2505ZM9.88522 25.2505C11.1439 25.4454 12.4744 25.7054 13.8165 26.044L14.1835 24.5896C12.7908 24.2382 11.414 23.9694 10.1148 23.7682L9.88522 25.2505Z" fill="#28303F"/>
</svg>
