<svg width="48" height="48" viewBox="0 0 48 48" fill="none" xmlns="http://www.w3.org/2000/svg">
<path d="M41.25 20C41.25 20.4142 41.5858 20.75 42 20.75C42.4142 20.75 42.75 20.4142 42.75 20H41.25ZM18 44.75C18.4142 44.75 18.75 44.4142 18.75 44C18.75 43.5858 18.4142 43.25 18 43.25V44.75ZM24 44L23.2787 43.7944L22.9091 45.0909L24.2056 44.7213L24 44ZM26.2558 37.0101L26.7861 37.5404L26.2558 37.0101ZM25.7451 37.8785L25.0239 37.6729L25.7451 37.8785ZM30.1215 42.2549L30.3271 42.9761L30.1215 42.2549ZM36.2854 26.9805L35.7551 26.4501L36.2854 26.9805ZM16.75 4C16.75 3.58579 16.4142 3.25 16 3.25C15.5858 3.25 15.25 3.58579 15.25 4H16.75ZM15.25 10C15.25 10.4142 15.5858 10.75 16 10.75C16.4142 10.75 16.75 10.4142 16.75 10H15.25ZM32.75 4C32.75 3.58579 32.4142 3.25 32 3.25C31.5858 3.25 31.25 3.58579 31.25 4H32.75ZM31.25 10C31.25 10.4142 31.5858 10.75 32 10.75C32.4142 10.75 32.75 10.4142 32.75 10H31.25ZM14 7.75H34V6.25H14V7.75ZM6.75 36V15H5.25V36H6.75ZM41.25 15V20H42.75V15H41.25ZM18 43.25H14V44.75H18V43.25ZM5.25 36C5.25 40.8325 9.16751 44.75 14 44.75V43.25C9.99594 43.25 6.75 40.0041 6.75 36H5.25ZM34 7.75C38.0041 7.75 41.25 10.9959 41.25 15H42.75C42.75 10.1675 38.8325 6.25 34 6.25V7.75ZM14 6.25C9.16751 6.25 5.25 10.1675 5.25 15H6.75C6.75 10.9959 9.99594 7.75 14 7.75V6.25ZM40.4892 31.1843L30.4596 41.2139L31.5202 42.2746L41.5499 32.2449L40.4892 31.1843ZM26.7861 37.5404L36.8157 27.5108L35.7551 26.4501L25.7254 36.4798L26.7861 37.5404ZM29.9159 41.5336L23.7944 43.2787L24.2056 44.7213L30.3271 42.9761L29.9159 41.5336ZM24.7213 44.2056L26.4664 38.0841L25.0239 37.6729L23.2787 43.7944L24.7213 44.2056ZM25.7254 36.4798C25.3939 36.8113 25.1524 37.222 25.0239 37.6729L26.4664 38.0841C26.525 37.8786 26.635 37.6915 26.7861 37.5404L25.7254 36.4798ZM30.4596 41.2139C30.3085 41.365 30.1214 41.475 29.9159 41.5336L30.3271 42.9761C30.778 42.8476 31.1887 42.6061 31.5202 42.2746L30.4596 41.2139ZM40.4892 27.5108C41.5036 28.5252 41.5036 30.1699 40.4892 31.1843L41.5499 32.2449C43.15 30.6448 43.15 28.0503 41.5499 26.4501L40.4892 27.5108ZM41.5499 26.4501C39.9497 24.85 37.3552 24.85 35.7551 26.4501L36.8157 27.5108C37.8301 26.4964 39.4748 26.4964 40.4892 27.5108L41.5499 26.4501ZM15.25 4V10H16.75V4H15.25ZM31.25 4V10H32.75V4H31.25Z" fill="#28303F"/>
</svg>
